<svg xmlns="http://www.w3.org/2000/svg" xmlns:xlink="http://www.w3.org/1999/xlink" width="480" zoomAndPan="magnify" viewBox="0 0 360 359.999987" height="480" preserveAspectRatio="xMidYMid meet" version="1.0"><defs><clipPath id="a64b4c8890"><path d="M 121 166.648438 L 264.960938 166.648438 L 264.960938 300.148438 L 121 300.148438 Z M 121 166.648438 " clip-rule="nonzero"/></clipPath><clipPath id="45d618e4e5"><path d="M 230 260 L 333 260 L 333 354.78125 L 230 354.78125 Z M 230 260 " clip-rule="nonzero"/></clipPath><clipPath id="c5c62219ac"><path d="M 28.558594 26.007812 L 112 26.007812 L 112 119.757812 L 28.558594 119.757812 Z M 28.558594 26.007812 " clip-rule="nonzero"/></clipPath><clipPath id="0e4eeedef9"><path d="M 82 80 L 114.808594 80 L 114.808594 117 L 82 117 Z M 82 80 " clip-rule="nonzero"/></clipPath><clipPath id="9d77f675f6"><path d="M 28.558594 26.007812 L 61 26.007812 L 61 62 L 28.558594 62 Z M 28.558594 26.007812 " clip-rule="nonzero"/></clipPath></defs><rect x="-36" width="432" fill="#ffffff" y="-35.999999" height="431.999984" fill-opacity="1"/><rect x="-36" width="432" fill="#ffffff" y="-35.999999" height="431.999984" fill-opacity="1"/><g clip-path="url(#a64b4c8890)"><path fill="#020202" d="M 264.769531 185.488281 C 264.699219 184.542969 264.5625 183.609375 264.355469 182.6875 C 264.152344 181.765625 263.878906 180.859375 263.542969 179.976562 C 263.203125 179.09375 262.804688 178.238281 262.34375 177.414062 C 261.878906 176.589844 261.359375 175.800781 260.785156 175.054688 C 260.207031 174.304688 259.582031 173.601562 258.902344 172.941406 C 258.222656 172.285156 257.5 171.679688 256.730469 171.128906 C 255.964844 170.578125 255.160156 170.085938 254.324219 169.652344 C 253.484375 169.214844 252.617188 168.84375 251.726562 168.539062 C 242.722656 165.460938 234.082031 166.144531 226.046875 170.554688 C 208.226562 180.339844 197.71875 205.910156 193.183594 219.679688 C 191.320312 203.25 184.492188 170.9375 159.578125 167.886719 C 158.46875 167.753906 157.355469 167.707031 156.238281 167.742188 C 155.121094 167.773438 154.015625 167.890625 152.914062 168.089844 C 151.816406 168.289062 150.738281 168.566406 149.679688 168.925781 C 148.621094 169.285156 147.597656 169.71875 146.605469 170.230469 C 145.609375 170.738281 144.660156 171.320312 143.75 171.972656 C 142.84375 172.625 141.988281 173.339844 141.1875 174.117188 C 140.386719 174.898438 139.644531 175.730469 138.964844 176.617188 C 138.289062 177.507812 137.675781 178.441406 137.136719 179.417969 C 136.210938 179.679688 135.304688 180.003906 134.421875 180.386719 C 133.539062 180.769531 132.683594 181.210938 131.863281 181.710938 C 131.039062 182.210938 130.25 182.761719 129.503906 183.367188 C 128.753906 183.972656 128.046875 184.628906 127.386719 185.328125 C 126.726562 186.03125 126.113281 186.773438 125.554688 187.554688 C 124.992188 188.339844 124.488281 189.15625 124.035156 190.007812 C 123.585938 190.863281 123.195312 191.738281 122.863281 192.644531 C 122.53125 193.550781 122.257812 194.472656 122.050781 195.414062 C 110.796875 245.492188 195.125 297.691406 198.71875 299.886719 C 198.992188 300.054688 199.285156 300.136719 199.601562 300.136719 C 200.089844 300.136719 200.503906 299.960938 200.839844 299.601562 C 259.382812 237.539062 266.023438 201.46875 264.769531 185.488281 Z M 198.070312 295.074219 C 136.601562 235.457031 134.257812 200.769531 138.371094 185.347656 C 138.648438 184.324219 139.003906 183.328125 139.445312 182.363281 C 140.363281 182.1875 141.289062 182.085938 142.222656 182.058594 C 142.632812 182.058594 143.074219 182.058594 143.503906 182.058594 C 159.160156 182.058594 179.558594 190.546875 190.554688 229.53125 C 190.558594 229.550781 190.566406 229.574219 190.578125 229.59375 C 190.578125 229.648438 190.617188 229.699219 190.636719 229.753906 L 190.679688 229.847656 C 190.714844 229.90625 190.75 229.964844 190.789062 230.019531 C 190.796875 230.035156 190.804688 230.050781 190.816406 230.0625 C 190.972656 230.28125 191.171875 230.453125 191.410156 230.574219 L 191.480469 230.605469 C 191.53125 230.632812 191.585938 230.65625 191.640625 230.671875 C 191.714844 230.699219 191.789062 230.71875 191.867188 230.734375 L 191.890625 230.734375 C 191.972656 230.746094 192.054688 230.753906 192.140625 230.753906 L 192.207031 230.753906 L 192.398438 230.734375 L 192.472656 230.734375 C 192.761719 230.683594 193.015625 230.570312 193.238281 230.382812 C 193.261719 230.367188 193.285156 230.347656 193.300781 230.324219 C 193.351562 230.285156 193.398438 230.238281 193.441406 230.191406 C 193.46875 230.160156 193.492188 230.128906 193.515625 230.09375 C 193.550781 230.050781 193.582031 230.007812 193.609375 229.960938 C 193.632812 229.929688 193.648438 229.890625 193.667969 229.855469 C 193.699219 229.804688 193.722656 229.753906 193.742188 229.699219 L 193.742188 229.671875 C 206.308594 196.871094 219.820312 184.601562 228.972656 180.074219 C 229.632812 179.746094 230.3125 179.476562 231.019531 179.261719 C 231.722656 179.046875 232.441406 178.894531 233.171875 178.804688 C 233.902344 178.710938 234.636719 178.679688 235.371094 178.714844 C 236.105469 178.746094 236.835938 178.839844 237.554688 178.992188 C 238.273438 179.148438 238.976562 179.363281 239.660156 179.636719 C 240.34375 179.910156 241 180.242188 241.628906 180.625 C 242.257812 181.011719 242.847656 181.445312 243.402344 181.929688 C 243.957031 182.414062 244.46875 182.941406 244.933594 183.515625 C 266.984375 211.25 207.238281 284.191406 198.070312 295.074219 Z M 156.867188 171.128906 C 157.628906 171.128906 158.390625 171.175781 159.148438 171.265625 C 179.117188 173.703125 186.390625 198.433594 189.003906 214.742188 C 175.628906 182.914062 154.441406 178.28125 142.121094 178.660156 L 141.65625 178.683594 C 142.550781 177.515625 143.570312 176.460938 144.703125 175.527344 C 145.839844 174.589844 147.066406 173.792969 148.386719 173.140625 C 149.703125 172.484375 151.078125 171.988281 152.511719 171.648438 C 153.941406 171.308594 155.394531 171.136719 156.867188 171.128906 Z M 125.359375 196.164062 C 125.660156 194.8125 126.109375 193.511719 126.703125 192.261719 C 127.300781 191.015625 128.03125 189.847656 128.894531 188.769531 C 129.757812 187.6875 130.734375 186.71875 131.820312 185.863281 C 132.90625 185.007812 134.074219 184.285156 135.324219 183.695312 C 135.246094 183.953125 135.167969 184.207031 135.097656 184.46875 C 130.21875 202.75 135.296875 234.675781 183.570312 285.289062 C 159.136719 267.042969 117.675781 230.355469 125.359375 196.164062 Z M 217.847656 275.359375 C 237.902344 247.832031 264.882812 203.160156 247.5625 181.398438 C 242.824219 175.441406 234.378906 173.605469 227.449219 177.035156 C 221.96875 179.75 214.996094 185.054688 207.636719 195.3125 C 212.796875 186.40625 219.445312 178.054688 227.675781 173.53125 C 234.84375 169.59375 242.570312 168.992188 250.632812 171.753906 C 251.371094 172.007812 252.085938 172.316406 252.777344 172.671875 C 253.46875 173.03125 254.132812 173.441406 254.765625 173.894531 C 255.398438 174.351562 255.992188 174.851562 256.554688 175.394531 C 257.113281 175.9375 257.632812 176.519531 258.105469 177.136719 C 258.582031 177.753906 259.011719 178.40625 259.390625 179.085938 C 259.773438 179.769531 260.101562 180.472656 260.378906 181.203125 C 260.660156 181.933594 260.882812 182.679688 261.050781 183.441406 C 261.222656 184.203125 261.335938 184.972656 261.390625 185.75 C 262.445312 199.222656 257.546875 227.640625 217.847656 275.359375 Z M 217.847656 275.359375 " fill-opacity="1" fill-rule="nonzero"/></g><g clip-path="url(#45d618e4e5)"><path fill="#000000" d="M 282.816406 305.769531 C 282.816406 305.769531 298.738281 260.65625 324.207031 271.421875 C 349.679688 282.1875 310.648438 339.195312 282.199219 354.78125 C 282.199219 354.78125 205.683594 310.382812 239.164062 271.832031 C 272.648438 233.28125 282.816406 305.769531 282.816406 305.769531 Z M 282.816406 305.769531 " fill-opacity="1" fill-rule="nonzero"/></g><g clip-path="url(#c5c62219ac)"><path fill="#fba2cb" d="M 111.339844 73.058594 L 111.433594 72.890625 C 111.433594 72.890625 85.582031 72.816406 78.578125 64.5625 C 71.796875 56.585938 70.265625 34.523438 69.984375 26.269531 C 69.703125 34.523438 68.191406 56.585938 61.410156 64.5625 C 54.40625 72.816406 28.574219 72.890625 28.574219 72.890625 L 28.683594 73.058594 L 28.574219 73.171875 C 28.574219 73.171875 54.40625 73.210938 61.410156 81.464844 C 68.191406 89.441406 69.703125 111.5 69.984375 119.757812 C 70.265625 111.5 71.816406 89.441406 78.578125 81.464844 C 85.582031 73.210938 111.433594 73.171875 111.433594 73.171875 Z M 111.339844 73.058594 " fill-opacity="1" fill-rule="nonzero"/></g><g clip-path="url(#0e4eeedef9)"><path fill="#fba2cb" d="M 114.796875 97.996094 C 114.796875 97.996094 104.859375 97.957031 102.152344 94.785156 C 99.535156 91.71875 98.957031 83.238281 98.84375 80.0625 C 98.734375 83.238281 98.152344 91.71875 95.558594 94.785156 C 92.867188 97.957031 82.929688 97.996094 82.929688 97.996094 L 82.96875 98.050781 L 82.929688 98.089844 C 82.929688 98.089844 92.867188 98.109375 95.558594 101.285156 C 98.171875 104.347656 98.75 112.828125 98.84375 116.003906 C 98.957031 112.828125 99.554688 104.347656 102.152344 101.285156 C 104.839844 98.109375 114.796875 98.089844 114.796875 98.089844 L 114.757812 98.050781 Z M 114.796875 97.996094 " fill-opacity="1" fill-rule="nonzero"/></g><g clip-path="url(#9d77f675f6)"><path fill="#fba2cb" d="M 41.199219 47.226562 C 43.816406 50.289062 44.394531 58.769531 44.488281 61.945312 C 44.601562 58.769531 45.199219 50.289062 47.792969 47.226562 C 50.484375 44.050781 60.441406 44.03125 60.441406 44.03125 L 60.402344 43.996094 L 60.441406 43.9375 C 60.441406 43.9375 50.503906 43.902344 47.792969 40.726562 C 45.179688 37.664062 44.601562 29.183594 44.488281 26.007812 C 44.375 29.183594 43.796875 37.664062 41.199219 40.726562 C 38.511719 43.902344 28.574219 43.9375 28.574219 43.9375 L 28.609375 43.996094 L 28.574219 44.03125 C 28.574219 44.03125 38.511719 44.050781 41.199219 47.226562 Z M 41.199219 47.226562 " fill-opacity="1" fill-rule="nonzero"/></g></svg>