M48
; DRILL file {KiCad 9.0.7} date 2026-05-17T20:12:26+0500
; FORMAT={-:-/ absolute / metric / decimal}
; #@! TF.CreationDate,2026-05-17T20:12:26+05:00
; #@! TF.GenerationSoftware,Kicad,Pcbnew,9.0.7
; #@! TF.FileFunction,Plated,1,2,PTH
FMAT,2
METRIC
; #@! TA.AperFunction,Plated,PTH,ViaDrill
T1C0.300
; #@! TA.AperFunction,Plated,PTH,ComponentDrill
T2C0.800
; #@! TA.AperFunction,Plated,PTH,ViaDrill
T3C0.900
; #@! TA.AperFunction,Plated,PTH,ComponentDrill
T4C1.000
; #@! TA.AperFunction,Plated,PTH,ComponentDrill
T5C1.600
; #@! TA.AperFunction,Plated,PTH,ComponentDrill
T6C4.500
%
G90
G05
T1
X-3.5Y13.0
T2
X-19.75Y50.0
X-19.75Y47.0
X-17.25Y50.0
X-17.25Y47.0
X24.5Y23.05
X24.5Y19.5
X27.0Y23.05
X27.0Y19.5
T3
X-39.61Y-4.96
X-32.12Y22.16
X-32.04Y30.61
X-29.98Y15.81
X-23.14Y-4.95
X33.35Y8.33
T4
X-22.6Y42.5
X-22.6Y27.26
X-20.28Y8.0
X-20.253Y21.45
X-20.06Y42.5
X-20.06Y27.26
X-19.81Y56.66
X-17.74Y8.0
X-17.713Y21.45
X-17.52Y42.5
X-17.52Y27.26
X-17.27Y56.66
X-15.2Y8.0
X-15.173Y21.45
X-14.98Y42.5
X-14.98Y27.26
X-14.73Y56.66
X-12.66Y8.0
X-12.633Y21.45
X-12.44Y42.5
X-12.44Y27.26
X-12.19Y56.66
X-10.12Y8.0
X-10.093Y21.45
X-9.9Y42.5
X-9.9Y27.26
X-7.58Y8.0
X-7.553Y21.45
X-7.5Y56.8
X-7.36Y42.5
X-7.36Y27.26
X-5.04Y8.0
X-5.013Y21.45
X-4.96Y56.8
X-4.82Y42.5
X-4.82Y27.26
X-2.5Y8.0
X-2.473Y21.45
X-2.42Y56.8
X-2.28Y42.5
X-2.28Y27.26
X0.12Y56.8
X0.26Y42.5
X0.26Y27.26
X2.66Y56.8
X2.8Y42.5
X2.8Y27.26
X3.096Y7.275
X3.123Y20.725
X5.2Y56.8
X5.34Y42.5
X5.34Y27.26
X5.636Y7.275
X5.663Y20.725
X7.74Y56.8
X7.88Y42.5
X7.88Y27.26
X8.176Y7.275
X8.203Y20.725
X10.28Y56.8
X10.42Y42.5
X10.42Y27.26
X10.716Y7.275
X10.743Y20.725
X12.82Y56.8
X12.96Y42.5
X12.96Y27.26
X13.256Y7.275
X13.283Y20.725
X15.36Y56.8
X15.5Y42.5
X15.5Y27.26
X15.796Y7.275
X15.823Y20.725
X18.04Y42.5
X18.04Y27.26
X18.337Y7.275
X18.363Y20.725
X20.58Y42.5
X20.58Y27.26
X20.877Y7.275
X20.903Y20.725
X23.12Y42.5
X23.12Y27.26
X25.66Y42.5
X25.66Y27.26
T5
X-44.0Y55.9
X-44.0Y50.82
X-44.0Y45.74
X-44.0Y40.66
X-44.0Y35.58
X-44.0Y30.5
X-44.0Y-10.6
X-44.0Y-15.68
X-44.0Y-20.76
X-44.0Y-25.84
X-44.0Y-30.92
X-44.0Y-36.0
X5.42Y-32.5
X10.5Y-32.5
X18.68Y-32.858
X23.76Y-32.858
X43.5Y55.9
X43.5Y50.82
X43.5Y45.74
X43.5Y40.66
X43.5Y35.58
X43.5Y30.5
X43.5Y-10.6
X43.5Y-15.68
X43.5Y-20.76
X43.5Y-25.84
X43.5Y-30.92
X43.5Y-36.0
T6
X-28.36Y-21.93
X-28.36Y-29.13
T4
G00X-18.703Y-15.446
M15
G01X-18.697Y-15.446
M16
G05
G00X-18.703Y-23.446
M15
G01X-18.697Y-23.446
M16
G05
G00X-18.703Y-27.7
M15
G01X-18.697Y-27.7
M16
G05
G00X-18.703Y-35.7
M15
G01X-18.697Y-35.7
M16
G05
G00X-4.703Y-15.446
M15
G01X-4.697Y-15.446
M16
G05
G00X-4.703Y-23.446
M15
G01X-4.697Y-23.446
M16
G05
G00X-4.703Y-27.7
M15
G01X-4.697Y-27.7
M16
G05
G00X-4.703Y-35.7
M15
G01X-4.697Y-35.7
M16
G05
M30
