%TF.GenerationSoftware,KiCad,Pcbnew,9.0.7*%
%TF.CreationDate,2026-05-17T20:12:26+05:00*%
%TF.ProjectId,LFR_Specialized,4c46525f-5370-4656-9369-616c697a6564,rev?*%
%TF.SameCoordinates,Original*%
%TF.FileFunction,Paste,Bot*%
%TF.FilePolarity,Positive*%
%FSLAX46Y46*%
G04 Gerber Fmt 4.6, Leading zero omitted, Abs format (unit mm)*
G04 Created by KiCad (PCBNEW 9.0.7) date 2026-05-17 20:12:26*
%MOMM*%
%LPD*%
G01*
G04 APERTURE LIST*
%ADD10C,0.350000*%
%ADD11O,1.005100X1.000000*%
G04 APERTURE END LIST*
D10*
X-44000000Y-36000000D03*
X-44000000Y-30920000D03*
X-44000000Y-25840000D03*
X-44000000Y-20760000D03*
X-44000000Y-15680000D03*
X-44000000Y-10600000D03*
X27000000Y19500000D03*
X24500000Y19500000D03*
X-19810000Y56660000D03*
X-17270000Y56660000D03*
X-14730000Y56660000D03*
X-12190000Y56660000D03*
X-22600000Y27260000D03*
X-20060000Y27260000D03*
X-17520000Y27260000D03*
X-14980000Y27260000D03*
X-12440000Y27260000D03*
X-9900000Y27260000D03*
X-7360000Y27260000D03*
X-4820000Y27260000D03*
X-2280000Y27260000D03*
X260000Y27260000D03*
X2800000Y27260000D03*
X5340000Y27260000D03*
X7880000Y27260000D03*
X10420000Y27260000D03*
X12960000Y27260000D03*
X15500000Y27260000D03*
X18040000Y27260000D03*
X20580000Y27260000D03*
X23120000Y27260000D03*
X25660000Y27260000D03*
X-22600000Y42500000D03*
X-20060000Y42500000D03*
X-17520000Y42500000D03*
X-14980000Y42500000D03*
X-12440000Y42500000D03*
X-9900000Y42500000D03*
X-7360000Y42500000D03*
X-4820000Y42500000D03*
X-2280000Y42500000D03*
X260000Y42500000D03*
X2800000Y42500000D03*
X5340000Y42500000D03*
X7880000Y42500000D03*
X10420000Y42500000D03*
X12960000Y42500000D03*
X15500000Y42500000D03*
X18040000Y42500000D03*
X20580000Y42500000D03*
X23120000Y42500000D03*
X25660000Y42500000D03*
X5420000Y-32500000D03*
X10500000Y-32500000D03*
X27000000Y23050000D03*
X24500000Y23050000D03*
X-20280000Y8000000D03*
X-17740000Y8000000D03*
X-15200000Y8000000D03*
X-12660000Y8000000D03*
X-10120000Y8000000D03*
X-7580000Y8000000D03*
X-5040000Y8000000D03*
X-2500000Y8000000D03*
X-2473100Y21450000D03*
X-5013100Y21450000D03*
X-7553100Y21450000D03*
X-10093100Y21450000D03*
X-12633100Y21450000D03*
X-15173100Y21450000D03*
X-17713100Y21450000D03*
X-20253100Y21450000D03*
D11*
X-18700000Y-27700000D03*
X-18700000Y-35700000D03*
X-4700000Y-27700000D03*
X-4700000Y-35700000D03*
D10*
X3096500Y7275000D03*
X5636500Y7275000D03*
X8176500Y7275000D03*
X10716500Y7275000D03*
X13256500Y7275000D03*
X15796500Y7275000D03*
X18336500Y7275000D03*
X20876500Y7275000D03*
X20903400Y20725000D03*
X18363400Y20725000D03*
X15823400Y20725000D03*
X13283400Y20725000D03*
X10743400Y20725000D03*
X8203400Y20725000D03*
X5663400Y20725000D03*
X3123400Y20725000D03*
X43500000Y-36000000D03*
X43500000Y-30920000D03*
X43500000Y-25840000D03*
X43500000Y-20760000D03*
X43500000Y-15680000D03*
X43500000Y-10600000D03*
X15360000Y56800000D03*
X12820000Y56800000D03*
X10280000Y56800000D03*
X7740000Y56800000D03*
X5200000Y56800000D03*
X2660000Y56800000D03*
X120000Y56800000D03*
X-2420000Y56800000D03*
X-4960000Y56800000D03*
X-7500000Y56800000D03*
X-28360000Y-29130000D03*
X-28360000Y-21930000D03*
X23760000Y-32857500D03*
X18680000Y-32857500D03*
D11*
X-18700000Y-15446000D03*
X-18700000Y-23446000D03*
X-4700000Y-15446000D03*
X-4700000Y-23446000D03*
D10*
X-17250000Y47000000D03*
X-19750000Y47000000D03*
X-17250000Y50000000D03*
X-19750000Y50000000D03*
X43500000Y30500000D03*
X43500000Y35580000D03*
X43500000Y40660000D03*
X43500000Y45740000D03*
X43500000Y50820000D03*
X43500000Y55900000D03*
X-44000000Y30500000D03*
X-44000000Y35580000D03*
X-44000000Y40660000D03*
X-44000000Y45740000D03*
X-44000000Y50820000D03*
X-44000000Y55900000D03*
M02*
