%TF.GenerationSoftware,KiCad,Pcbnew,9.0.7*%
%TF.CreationDate,2026-05-17T20:12:26+05:00*%
%TF.ProjectId,LFR_Specialized,4c46525f-5370-4656-9369-616c697a6564,rev?*%
%TF.SameCoordinates,Original*%
%TF.FileFunction,Copper,L2,Bot*%
%TF.FilePolarity,Positive*%
%FSLAX46Y46*%
G04 Gerber Fmt 4.6, Leading zero omitted, Abs format (unit mm)*
G04 Created by KiCad (PCBNEW 9.0.7) date 2026-05-17 20:12:26*
%MOMM*%
%LPD*%
G01*
G04 APERTURE LIST*
G04 Aperture macros list*
%AMRoundRect*
0 Rectangle with rounded corners*
0 $1 Rounding radius*
0 $2 $3 $4 $5 $6 $7 $8 $9 X,Y pos of 4 corners*
0 Add a 4 corners polygon primitive as box body*
4,1,4,$2,$3,$4,$5,$6,$7,$8,$9,$2,$3,0*
0 Add four circle primitives for the rounded corners*
1,1,$1+$1,$2,$3*
1,1,$1+$1,$4,$5*
1,1,$1+$1,$6,$7*
1,1,$1+$1,$8,$9*
0 Add four rect primitives between the rounded corners*
20,1,$1+$1,$2,$3,$4,$5,0*
20,1,$1+$1,$4,$5,$6,$7,0*
20,1,$1+$1,$6,$7,$8,$9,0*
20,1,$1+$1,$8,$9,$2,$3,0*%
G04 Aperture macros list end*
%TA.AperFunction,ComponentPad*%
%ADD10RoundRect,0.250001X0.949999X-0.949999X0.949999X0.949999X-0.949999X0.949999X-0.949999X-0.949999X0*%
%TD*%
%TA.AperFunction,ComponentPad*%
%ADD11C,2.400000*%
%TD*%
%TA.AperFunction,ComponentPad*%
%ADD12C,1.600000*%
%TD*%
%TA.AperFunction,ComponentPad*%
%ADD13R,1.700000X1.700000*%
%TD*%
%TA.AperFunction,ComponentPad*%
%ADD14C,1.700000*%
%TD*%
%TA.AperFunction,ComponentPad*%
%ADD15O,1.800000X3.000000*%
%TD*%
%TA.AperFunction,ComponentPad*%
%ADD16RoundRect,0.250001X-0.949999X-0.949999X0.949999X-0.949999X0.949999X0.949999X-0.949999X0.949999X0*%
%TD*%
%TA.AperFunction,ComponentPad*%
%ADD17O,1.600000X3.500000*%
%TD*%
%TA.AperFunction,ComponentPad*%
%ADD18R,2.000000X2.000000*%
%TD*%
%TA.AperFunction,ComponentPad*%
%ADD19RoundRect,1.500000X1.500000X-1.500000X1.500000X1.500000X-1.500000X1.500000X-1.500000X-1.500000X0*%
%TD*%
%TA.AperFunction,ComponentPad*%
%ADD20C,6.000000*%
%TD*%
%TA.AperFunction,ComponentPad*%
%ADD21RoundRect,0.250001X0.949999X0.949999X-0.949999X0.949999X-0.949999X-0.949999X0.949999X-0.949999X0*%
%TD*%
%TA.AperFunction,ViaPad*%
%ADD22C,1.400000*%
%TD*%
%TA.AperFunction,ViaPad*%
%ADD23C,0.600000*%
%TD*%
%TA.AperFunction,Conductor*%
%ADD24C,0.200000*%
%TD*%
%TA.AperFunction,Conductor*%
%ADD25C,0.500000*%
%TD*%
%TA.AperFunction,Conductor*%
%ADD26C,1.000000*%
%TD*%
%TA.AperFunction,Conductor*%
%ADD27C,0.700000*%
%TD*%
%ADD28C,0.350000*%
%ADD29C,0.300000*%
%ADD30O,1.005100X1.000000*%
G04 APERTURE END LIST*
D10*
%TO.P,J3,1,Pin_1*%
%TO.N,1AO2*%
X-44000000Y-36000000D03*
D11*
%TO.P,J3,2,Pin_2*%
%TO.N,GND*%
X-44000000Y-30920000D03*
%TO.P,J3,3,Pin_3*%
%TO.N,M1EN2*%
X-44000000Y-25840000D03*
%TO.P,J3,4,Pin_4*%
%TO.N,M1EN1*%
X-44000000Y-20760000D03*
%TO.P,J3,5,Pin_5*%
%TO.N,VCC*%
X-44000000Y-15680000D03*
%TO.P,J3,6,Pin_6*%
%TO.N,1AO1*%
X-44000000Y-10600000D03*
%TD*%
D12*
%TO.P,C1,1*%
%TO.N,VCC*%
X27000000Y19500000D03*
%TO.P,C1,2*%
%TO.N,GND*%
X24500000Y19500000D03*
%TD*%
D13*
%TO.P,J7,1,Pin_1*%
%TO.N,+5V*%
X-19810000Y56660000D03*
D14*
%TO.P,J7,2,Pin_2*%
%TO.N,Echo*%
X-17270000Y56660000D03*
%TO.P,J7,3,Pin_3*%
%TO.N,Trig*%
X-14730000Y56660000D03*
%TO.P,J7,4,Pin_4*%
%TO.N,GND*%
X-12190000Y56660000D03*
%TD*%
D15*
%TO.P,STM32,1,B12*%
%TO.N,unconnected-(STM32-B12-Pad1)*%
X-22600000Y27260000D03*
%TO.P,STM32,2,B13*%
%TO.N,1PWMB*%
X-20060000Y27260000D03*
%TO.P,STM32,3,B14*%
%TO.N,1AIN2*%
X-17520000Y27260000D03*
%TO.P,STM32,4,B15*%
%TO.N,1AIN1*%
X-14980000Y27260000D03*
%TO.P,STM32,5,A8*%
%TO.N,1STBY*%
X-12440000Y27260000D03*
%TO.P,STM32,6,A9*%
%TO.N,1BIN1*%
X-9900000Y27260000D03*
%TO.P,STM32,7,A10*%
%TO.N,1BIN2*%
X-7360000Y27260000D03*
%TO.P,STM32,8,A11*%
%TO.N,1PWMA*%
X-4820000Y27260000D03*
%TO.P,STM32,9,A12*%
%TO.N,M1EN1*%
X-2280000Y27260000D03*
%TO.P,STM32,10,A15*%
%TO.N,M1EN2*%
X260000Y27260000D03*
%TO.P,STM32,11,B3*%
%TO.N,2PWMB*%
X2800000Y27260000D03*
%TO.P,STM32,12,B4*%
%TO.N,2AIN2*%
X5340000Y27260000D03*
%TO.P,STM32,13,B5*%
%TO.N,2AIN1*%
X7880000Y27260000D03*
%TO.P,STM32,14,B6*%
%TO.N,2STBY*%
X10420000Y27260000D03*
%TO.P,STM32,15,B7*%
%TO.N,2BIN1*%
X12960000Y27260000D03*
%TO.P,STM32,16,B8*%
%TO.N,2BIN2*%
X15500000Y27260000D03*
%TO.P,STM32,17,B9*%
%TO.N,2PWMA*%
X18040000Y27260000D03*
%TO.P,STM32,18,5V*%
%TO.N,unconnected-(STM32-5V-Pad18)*%
X20580000Y27260000D03*
%TO.P,STM32,19,GND*%
%TO.N,GND*%
X23120000Y27260000D03*
%TO.P,STM32,20,3V3*%
%TO.N,VCC*%
X25660000Y27260000D03*
%TO.P,STM32,21,5V*%
%TO.N,unconnected-(STM32-5V-Pad21)*%
X-22600000Y42500000D03*
%TO.P,STM32,22,GND*%
%TO.N,GND*%
X-20060000Y42500000D03*
%TO.P,STM32,23,3V3*%
%TO.N,VCC*%
X-17520000Y42500000D03*
%TO.P,STM32,24,B10*%
%TO.N,unconnected-(STM32-B10-Pad24)*%
X-14980000Y42500000D03*
%TO.P,STM32,25,B2*%
%TO.N,unconnected-(STM32-B2-Pad25)*%
X-12440000Y42500000D03*
%TO.P,STM32,26,B1*%
%TO.N,Echo*%
X-9900000Y42500000D03*
%TO.P,STM32,27,B0*%
%TO.N,Trig*%
X-7360000Y42500000D03*
%TO.P,STM32,28,A7*%
%TO.N,IR8*%
X-4820000Y42500000D03*
%TO.P,STM32,29,A6*%
%TO.N,IR7*%
X-2280000Y42500000D03*
%TO.P,STM32,30,A5*%
%TO.N,IR6*%
X260000Y42500000D03*
%TO.P,STM32,31,A4*%
%TO.N,IR5*%
X2800000Y42500000D03*
%TO.P,STM32,32,A3*%
%TO.N,IR4*%
X5340000Y42500000D03*
%TO.P,STM32,33,A2*%
%TO.N,IR3*%
X7880000Y42500000D03*
%TO.P,STM32,34,A1*%
%TO.N,IR2*%
X10420000Y42500000D03*
%TO.P,STM32,35,A0*%
%TO.N,IR1*%
X12960000Y42500000D03*
%TO.P,STM32,36,Reset*%
%TO.N,unconnected-(STM32-Reset-Pad36)*%
X15500000Y42500000D03*
%TO.P,STM32,37,C15*%
%TO.N,M2EN2*%
X18040000Y42500000D03*
%TO.P,STM32,38,C14*%
%TO.N,M2EN1*%
X20580000Y42500000D03*
%TO.P,STM32,39,C13*%
%TO.N,unconnected-(STM32-C13-Pad39)*%
X23120000Y42500000D03*
%TO.P,STM32,40,VB*%
%TO.N,unconnected-(STM32-VB-Pad40)*%
X25660000Y42500000D03*
%TD*%
D16*
%TO.P,J6,1,Pin_1*%
%TO.N,2AO1*%
X5420000Y-32500000D03*
D11*
%TO.P,J6,2,Pin_2*%
%TO.N,2AO2*%
X10500000Y-32500000D03*
%TD*%
D12*
%TO.P,C9,1*%
%TO.N,VCC*%
X27000000Y23050000D03*
%TO.P,C9,2*%
%TO.N,GND*%
X24500000Y23050000D03*
%TD*%
D17*
%TO.P,U3,1,VMOT*%
%TO.N,IN+*%
X-20280000Y8000000D03*
%TO.P,U3,2,VCC*%
%TO.N,VCC*%
X-17740000Y8000000D03*
%TO.P,U3,3,GND*%
%TO.N,GND*%
X-15200000Y8000000D03*
%TO.P,U3,4,AO1*%
%TO.N,1AO1*%
X-12660000Y8000000D03*
%TO.P,U3,5,AO2*%
%TO.N,1AO2*%
X-10120000Y8000000D03*
%TO.P,U3,6,BO2*%
%TO.N,1BO1*%
X-7580000Y8000000D03*
%TO.P,U3,7,BO1*%
%TO.N,1BO2*%
X-5040000Y8000000D03*
%TO.P,U3,8,GND*%
%TO.N,GND*%
X-2500000Y8000000D03*
%TO.P,U3,9,GND*%
X-2473100Y21450000D03*
%TO.P,U3,10,PWMB*%
%TO.N,1PWMA*%
X-5013100Y21450000D03*
%TO.P,U3,11,BIN2*%
%TO.N,1BIN2*%
X-7553100Y21450000D03*
%TO.P,U3,12,BIN1*%
%TO.N,1BIN1*%
X-10093100Y21450000D03*
%TO.P,U3,13,STBY*%
%TO.N,1STBY*%
X-12633100Y21450000D03*
%TO.P,U3,14,AIN1*%
%TO.N,1AIN1*%
X-15173100Y21450000D03*
%TO.P,U3,15,AIN2*%
%TO.N,1AIN2*%
X-17713100Y21450000D03*
%TO.P,U3,16,PWMA*%
%TO.N,1PWMB*%
X-20253100Y21450000D03*
%TD*%
D18*
%TO.P,U4,1,IN-*%
%TO.N,GND*%
X-18700000Y-27700000D03*
%TO.P,U4,2,IN+*%
%TO.N,IN+*%
X-18700000Y-35700000D03*
%TO.P,U4,3,OUT-*%
%TO.N,GND*%
X-4700000Y-27700000D03*
%TO.P,U4,4,OUT+*%
%TO.N,VCC*%
X-4700000Y-35700000D03*
%TD*%
D17*
%TO.P,U1,1,VMOT*%
%TO.N,IN+*%
X3096500Y7275000D03*
%TO.P,U1,2,VCC*%
%TO.N,VCC*%
X5636500Y7275000D03*
%TO.P,U1,3,GND*%
%TO.N,GND*%
X8176500Y7275000D03*
%TO.P,U1,4,AO1*%
%TO.N,2AO1*%
X10716500Y7275000D03*
%TO.P,U1,5,AO2*%
%TO.N,2AO2*%
X13256500Y7275000D03*
%TO.P,U1,6,BO2*%
%TO.N,2BO2*%
X15796500Y7275000D03*
%TO.P,U1,7,BO1*%
%TO.N,2BO1*%
X18336500Y7275000D03*
%TO.P,U1,8,GND*%
%TO.N,GND*%
X20876500Y7275000D03*
%TO.P,U1,9,GND*%
X20903400Y20725000D03*
%TO.P,U1,10,PWMB*%
%TO.N,2PWMA*%
X18363400Y20725000D03*
%TO.P,U1,11,BIN2*%
%TO.N,2BIN2*%
X15823400Y20725000D03*
%TO.P,U1,12,BIN1*%
%TO.N,2BIN1*%
X13283400Y20725000D03*
%TO.P,U1,13,STBY*%
%TO.N,2STBY*%
X10743400Y20725000D03*
%TO.P,U1,14,AIN1*%
%TO.N,2AIN1*%
X8203400Y20725000D03*
%TO.P,U1,15,AIN2*%
%TO.N,2AIN2*%
X5663400Y20725000D03*
%TO.P,U1,16,PWMA*%
%TO.N,2PWMB*%
X3123400Y20725000D03*
%TD*%
D10*
%TO.P,J8,1,Pin_1*%
%TO.N,1AO2*%
X43500000Y-36000000D03*
D11*
%TO.P,J8,2,Pin_2*%
%TO.N,GND*%
X43500000Y-30920000D03*
%TO.P,J8,3,Pin_3*%
%TO.N,unconnected-(J8-Pin_3-Pad3)*%
X43500000Y-25840000D03*
%TO.P,J8,4,Pin_4*%
%TO.N,unconnected-(J8-Pin_4-Pad4)*%
X43500000Y-20760000D03*
%TO.P,J8,5,Pin_5*%
%TO.N,VCC*%
X43500000Y-15680000D03*
%TO.P,J8,6,Pin_6*%
%TO.N,1AO1*%
X43500000Y-10600000D03*
%TD*%
D13*
%TO.P,J9,1,Pin_1*%
%TO.N,GND*%
X15360000Y56800000D03*
D14*
%TO.P,J9,2,Pin_2*%
%TO.N,IR1*%
X12820000Y56800000D03*
%TO.P,J9,3,Pin_3*%
%TO.N,IR2*%
X10280000Y56800000D03*
%TO.P,J9,4,Pin_4*%
%TO.N,IR3*%
X7740000Y56800000D03*
%TO.P,J9,5,Pin_5*%
%TO.N,IR4*%
X5200000Y56800000D03*
%TO.P,J9,6,Pin_6*%
%TO.N,IR5*%
X2660000Y56800000D03*
%TO.P,J9,7,Pin_7*%
%TO.N,IR6*%
X120000Y56800000D03*
%TO.P,J9,8,Pin_8*%
%TO.N,IR7*%
X-2420000Y56800000D03*
%TO.P,J9,9,Pin_9*%
%TO.N,IR8*%
X-4960000Y56800000D03*
%TO.P,J9,10,Pin_10*%
%TO.N,VCC*%
X-7500000Y56800000D03*
%TD*%
D19*
%TO.P,J4,1,Pin_1*%
%TO.N,IN+*%
X-28360000Y-29130000D03*
D20*
%TO.P,J4,2,Pin_2*%
%TO.N,GND*%
X-28360000Y-21930000D03*
%TD*%
D21*
%TO.P,J5,1,Pin_1*%
%TO.N,2BO1*%
X23760000Y-32857500D03*
D11*
%TO.P,J5,2,Pin_2*%
%TO.N,2BO2*%
X18680000Y-32857500D03*
%TD*%
D18*
%TO.P,U2,1,IN-*%
%TO.N,GND*%
X-18700000Y-15446000D03*
%TO.P,U2,2,IN+*%
%TO.N,IN+*%
X-18700000Y-23446000D03*
%TO.P,U2,3,OUT-*%
%TO.N,GND*%
X-4700000Y-15446000D03*
%TO.P,U2,4,OUT+*%
%TO.N,+5V*%
X-4700000Y-23446000D03*
%TD*%
D12*
%TO.P,C12,1*%
%TO.N,VCC*%
X-17250000Y47000000D03*
%TO.P,C12,2*%
%TO.N,GND*%
X-19750000Y47000000D03*
%TD*%
%TO.P,C11,1*%
%TO.N,VCC*%
X-17250000Y50000000D03*
%TO.P,C11,2*%
%TO.N,GND*%
X-19750000Y50000000D03*
%TD*%
D10*
%TO.P,J10,1,Pin_1*%
%TO.N,1BO2*%
X43500000Y30500000D03*
D11*
%TO.P,J10,2,Pin_2*%
%TO.N,GND*%
X43500000Y35580000D03*
%TO.P,J10,3,Pin_3*%
%TO.N,M2EN2*%
X43500000Y40660000D03*
%TO.P,J10,4,Pin_4*%
%TO.N,M2EN1*%
X43500000Y45740000D03*
%TO.P,J10,5,Pin_5*%
%TO.N,VCC*%
X43500000Y50820000D03*
%TO.P,J10,6,Pin_6*%
%TO.N,1BO1*%
X43500000Y55900000D03*
%TD*%
D10*
%TO.P,J2,1,Pin_1*%
%TO.N,1BO2*%
X-44000000Y30500000D03*
D11*
%TO.P,J2,2,Pin_2*%
%TO.N,GND*%
X-44000000Y35580000D03*
%TO.P,J2,3,Pin_3*%
%TO.N,unconnected-(J2-Pin_3-Pad3)*%
X-44000000Y40660000D03*
%TO.P,J2,4,Pin_4*%
%TO.N,unconnected-(J2-Pin_4-Pad4)*%
X-44000000Y45740000D03*
%TO.P,J2,5,Pin_5*%
%TO.N,VCC*%
X-44000000Y50820000D03*
%TO.P,J2,6,Pin_6*%
%TO.N,1BO1*%
X-44000000Y55900000D03*
%TD*%
D22*
%TO.N,VCC*%
X-29980000Y15810000D03*
%TO.N,GND*%
X33350000Y8330000D03*
D23*
%TO.N,IN+*%
X-3500000Y13000000D03*
D22*
%TO.N,+5V*%
X-32120000Y22160000D03*
X-23140000Y-4950000D03*
X-32040000Y30610000D03*
X-39610000Y-4960000D03*
%TD*%
D24*
%TO.N,VCC*%
X-4700000Y-35700000D02*
X-3900000Y-36500000D01*
D25*
X-34500000Y-37720000D02*
X-6250000Y-37720000D01*
D26*
X5636500Y4136500D02*
X5636500Y7275000D01*
X-17740000Y5740000D02*
X-15500000Y3500000D01*
D25*
X-35110000Y-37110000D02*
X-34500000Y-37720000D01*
D26*
X5000000Y3500000D02*
X5636500Y4136500D01*
X28740000Y27260000D02*
X25660000Y27260000D01*
X31500000Y-35000000D02*
X31500000Y24500000D01*
X1500000Y3500000D02*
X5000000Y3500000D01*
X-17740000Y8000000D02*
X-17740000Y5740000D01*
D25*
X-4700000Y-36170000D02*
X-4700000Y-35700000D01*
D26*
X-4700000Y-35700000D02*
X300000Y-35700000D01*
X300000Y-35700000D02*
X1500000Y-34500000D01*
X1500000Y-34500000D02*
X1500000Y3500000D01*
X-3100000Y-35700000D02*
X30800000Y-35700000D01*
D25*
X-29980000Y15810000D02*
X-35110000Y10680000D01*
X-6250000Y-37720000D02*
X-4700000Y-36170000D01*
D26*
X31500000Y24500000D02*
X28740000Y27260000D01*
X30800000Y-35700000D02*
X31500000Y-35000000D01*
X-15500000Y3500000D02*
X1500000Y3500000D01*
D25*
X-35110000Y10680000D02*
X-35110000Y-37110000D01*
%TO.N,GND*%
X43500000Y-30920000D02*
X46030000Y-28390000D01*
D24*
X20876500Y20698100D02*
X20903400Y20725000D01*
D25*
X46030000Y3790000D02*
X41650000Y8170000D01*
X20876500Y7275000D02*
X20876500Y20698100D01*
X46030000Y-1480000D02*
X46030000Y3790000D01*
X8176500Y8823500D02*
X6920000Y10080000D01*
X43500000Y35580000D02*
X47580000Y35580000D01*
X22128400Y19500000D02*
X20903400Y20725000D01*
X-14000000Y10500000D02*
X-15200000Y9300000D01*
X33350000Y8330000D02*
X33350000Y8170000D01*
X-3500000Y10500000D02*
X-14000000Y10500000D01*
X48000000Y36000000D02*
X48000000Y52500000D01*
X9450000Y9950000D02*
X19550000Y9950000D01*
D24*
X-2500000Y21423100D02*
X-2473100Y21450000D01*
D25*
X48000000Y52500000D02*
X47000000Y53500000D01*
D24*
X20876500Y8623500D02*
X20876500Y7275000D01*
D25*
X33350000Y8170000D02*
X33190000Y8010000D01*
D24*
X8176500Y7275000D02*
X8176500Y8823500D01*
D25*
X41490000Y8330000D02*
X33350000Y8330000D01*
X46030000Y-28390000D02*
X46030000Y-1480000D01*
X6920000Y10080000D02*
X-420000Y10080000D01*
X41650000Y8170000D02*
X41490000Y8330000D01*
X8176500Y8676500D02*
X9450000Y9950000D01*
X29200000Y56800000D02*
X15360000Y56800000D01*
D24*
X8176500Y7275000D02*
X8176500Y8676500D01*
D25*
X-420000Y10080000D02*
X-2500000Y8000000D01*
X32500000Y53500000D02*
X29200000Y56800000D01*
X-2500000Y8000000D02*
X-2500000Y21423100D01*
X24500000Y19500000D02*
X22128400Y19500000D01*
D24*
X-15200000Y9300000D02*
X-15200000Y8000000D01*
D25*
X-2500000Y9500000D02*
X-3500000Y10500000D01*
X47580000Y35580000D02*
X48000000Y36000000D01*
X19550000Y9950000D02*
X20876500Y8623500D01*
D24*
X-2500000Y8000000D02*
X-2500000Y9500000D01*
D25*
X47000000Y53500000D02*
X32500000Y53500000D01*
D27*
%TO.N,IN+*%
X-19000000Y13000000D02*
X-20280000Y11720000D01*
X-3500000Y13000000D02*
X-19000000Y13000000D01*
X-20280000Y11720000D02*
X-20280000Y8000000D01*
X-32500000Y-4220000D02*
X-32500000Y-28600000D01*
X-20280000Y8000000D02*
X-32500000Y-4220000D01*
X-31970000Y-29130000D02*
X-28360000Y-29130000D01*
X-32500000Y-28600000D02*
X-31970000Y-29130000D01*
D25*
%TO.N,2BO1*%
X18336500Y4163500D02*
X23760000Y-1260000D01*
X18336500Y7275000D02*
X18336500Y4163500D01*
X23760000Y-1260000D02*
X23760000Y-32857500D01*
%TO.N,2BO2*%
X15796500Y2203500D02*
X18680000Y-680000D01*
X18680000Y-680000D02*
X18680000Y-32857500D01*
X15796500Y7275000D02*
X15796500Y2203500D01*
%TO.N,2AO1*%
X10716500Y3716500D02*
X5420000Y-1580000D01*
X10716500Y7275000D02*
X10716500Y3716500D01*
X5420000Y-1580000D02*
X5420000Y-32500000D01*
%TO.N,2AO2*%
X13256500Y2256500D02*
X10500000Y-500000D01*
X13256500Y7275000D02*
X13256500Y2256500D01*
X10500000Y-500000D02*
X10500000Y-32500000D01*
%TO.N,+5V*%
X-39610000Y21370000D02*
X-39140000Y21840000D01*
X-10884000Y-23446000D02*
X-12630000Y-21700000D01*
X-32040000Y54610000D02*
X-29990000Y56660000D01*
X-32040000Y30610000D02*
X-32040000Y54610000D01*
X-4700000Y-23446000D02*
X-10884000Y-23446000D01*
X-38820000Y22160000D02*
X-32120000Y22160000D01*
X-39610000Y-4960000D02*
X-39610000Y21370000D01*
X-39140000Y21840000D02*
X-38820000Y22160000D01*
X-13650000Y-20680000D02*
X-13650000Y-4950000D01*
X-13650000Y-4950000D02*
X-23140000Y-4950000D01*
X-29990000Y56660000D02*
X-19810000Y56660000D01*
X-12630000Y-21700000D02*
X-13650000Y-20680000D01*
X-23140000Y-4950000D02*
X-23160000Y-4950000D01*
%TO.N,Trig*%
X-14730000Y56660000D02*
X-7360000Y49290000D01*
X-7360000Y49290000D02*
X-7360000Y42500000D01*
%TO.N,Echo*%
X-17270000Y56660000D02*
X-9900000Y49290000D01*
X-9900000Y49290000D02*
X-9900000Y42500000D01*
%TO.N,M1EN1*%
X-28500000Y25500000D02*
X-47000000Y25500000D01*
X-47000000Y25500000D02*
X-47500000Y25000000D01*
X-3000000Y31500000D02*
X-27000000Y31500000D01*
X-2280000Y27260000D02*
X-2280000Y30780000D01*
X-47500000Y25000000D02*
X-47500000Y-20000000D01*
X-27000000Y27000000D02*
X-28500000Y25500000D01*
X-46740000Y-20760000D02*
X-44000000Y-20760000D01*
X-27000000Y31500000D02*
X-27000000Y27000000D01*
X-47500000Y-20000000D02*
X-46740000Y-20760000D01*
X-2280000Y30780000D02*
X-3000000Y31500000D01*
%TO.N,M1EN2*%
X-29000000Y31830000D02*
X-28310000Y32520000D01*
X260000Y30740000D02*
X260000Y27260000D01*
X-28310000Y32520000D02*
X-1520000Y32520000D01*
X-29000000Y28370000D02*
X-29000000Y31830000D01*
X-48500000Y26000000D02*
X-46130000Y28370000D01*
X-46130000Y28370000D02*
X-29000000Y28370000D01*
X-1520000Y32520000D02*
X260000Y30740000D01*
X-44000000Y-25840000D02*
X-47160000Y-25840000D01*
X-47160000Y-25840000D02*
X-48500000Y-24500000D01*
X-48500000Y-24500000D02*
X-48500000Y26000000D01*
%TD*%
D28*
X-29980000Y15810000D03*
X33350000Y8330000D03*
D29*
X-3500000Y13000000D03*
D28*
X-32120000Y22160000D03*
X-23140000Y-4950000D03*
X-32040000Y30610000D03*
X-39610000Y-4960000D03*
X-44000000Y-36000000D03*
X-44000000Y-30920000D03*
X-44000000Y-25840000D03*
X-44000000Y-20760000D03*
X-44000000Y-15680000D03*
X-44000000Y-10600000D03*
X27000000Y19500000D03*
X24500000Y19500000D03*
X-19810000Y56660000D03*
X-17270000Y56660000D03*
X-14730000Y56660000D03*
X-12190000Y56660000D03*
X-22600000Y27260000D03*
X-20060000Y27260000D03*
X-17520000Y27260000D03*
X-14980000Y27260000D03*
X-12440000Y27260000D03*
X-9900000Y27260000D03*
X-7360000Y27260000D03*
X-4820000Y27260000D03*
X-2280000Y27260000D03*
X260000Y27260000D03*
X2800000Y27260000D03*
X5340000Y27260000D03*
X7880000Y27260000D03*
X10420000Y27260000D03*
X12960000Y27260000D03*
X15500000Y27260000D03*
X18040000Y27260000D03*
X20580000Y27260000D03*
X23120000Y27260000D03*
X25660000Y27260000D03*
X-22600000Y42500000D03*
X-20060000Y42500000D03*
X-17520000Y42500000D03*
X-14980000Y42500000D03*
X-12440000Y42500000D03*
X-9900000Y42500000D03*
X-7360000Y42500000D03*
X-4820000Y42500000D03*
X-2280000Y42500000D03*
X260000Y42500000D03*
X2800000Y42500000D03*
X5340000Y42500000D03*
X7880000Y42500000D03*
X10420000Y42500000D03*
X12960000Y42500000D03*
X15500000Y42500000D03*
X18040000Y42500000D03*
X20580000Y42500000D03*
X23120000Y42500000D03*
X25660000Y42500000D03*
X5420000Y-32500000D03*
X10500000Y-32500000D03*
X27000000Y23050000D03*
X24500000Y23050000D03*
X-20280000Y8000000D03*
X-17740000Y8000000D03*
X-15200000Y8000000D03*
X-12660000Y8000000D03*
X-10120000Y8000000D03*
X-7580000Y8000000D03*
X-5040000Y8000000D03*
X-2500000Y8000000D03*
X-2473100Y21450000D03*
X-5013100Y21450000D03*
X-7553100Y21450000D03*
X-10093100Y21450000D03*
X-12633100Y21450000D03*
X-15173100Y21450000D03*
X-17713100Y21450000D03*
X-20253100Y21450000D03*
D30*
X-18700000Y-27700000D03*
X-18700000Y-35700000D03*
X-4700000Y-27700000D03*
X-4700000Y-35700000D03*
D28*
X3096500Y7275000D03*
X5636500Y7275000D03*
X8176500Y7275000D03*
X10716500Y7275000D03*
X13256500Y7275000D03*
X15796500Y7275000D03*
X18336500Y7275000D03*
X20876500Y7275000D03*
X20903400Y20725000D03*
X18363400Y20725000D03*
X15823400Y20725000D03*
X13283400Y20725000D03*
X10743400Y20725000D03*
X8203400Y20725000D03*
X5663400Y20725000D03*
X3123400Y20725000D03*
X43500000Y-36000000D03*
X43500000Y-30920000D03*
X43500000Y-25840000D03*
X43500000Y-20760000D03*
X43500000Y-15680000D03*
X43500000Y-10600000D03*
X15360000Y56800000D03*
X12820000Y56800000D03*
X10280000Y56800000D03*
X7740000Y56800000D03*
X5200000Y56800000D03*
X2660000Y56800000D03*
X120000Y56800000D03*
X-2420000Y56800000D03*
X-4960000Y56800000D03*
X-7500000Y56800000D03*
X-28360000Y-29130000D03*
X-28360000Y-21930000D03*
X23760000Y-32857500D03*
X18680000Y-32857500D03*
D30*
X-18700000Y-15446000D03*
X-18700000Y-23446000D03*
X-4700000Y-15446000D03*
X-4700000Y-23446000D03*
D28*
X-17250000Y47000000D03*
X-19750000Y47000000D03*
X-17250000Y50000000D03*
X-19750000Y50000000D03*
X43500000Y30500000D03*
X43500000Y35580000D03*
X43500000Y40660000D03*
X43500000Y45740000D03*
X43500000Y50820000D03*
X43500000Y55900000D03*
X-44000000Y30500000D03*
X-44000000Y35580000D03*
X-44000000Y40660000D03*
X-44000000Y45740000D03*
X-44000000Y50820000D03*
X-44000000Y55900000D03*
M02*
